<svg xmlns="http://www.w3.org/2000/svg" width="256" height="256" fill="none" viewBox="0 0 256 256"><defs><linearGradient id="appBg" x1="32" x2="224" y1="24" y2="232" gradientUnits="userSpaceOnUse"><stop stop-color="#0A2540"/><stop offset=".58" stop-color="#001A33"/><stop offset="1" stop-color="#000F22"/></linearGradient><linearGradient id="cardGrad" x1="73" x2="183" y1="61" y2="180" gradientUnits="userSpaceOnUse"><stop stop-color="#F7FCFF"/><stop offset="1" stop-color="#DFF7FF"/></linearGradient><linearGradient id="accentGrad" x1="69" x2="198" y1="69" y2="188" gradientUnits="userSpaceOnUse"><stop stop-color="#00CCF9"/><stop offset="1" stop-color="#4EDEA3"/></linearGradient><filter id="deepShadow" width="198" height="198" x="30" y="30" color-interpolation-filters="sRGB" filterUnits="userSpaceOnUse"><feDropShadow dx="0" dy="18" flood-color="#000F22" flood-opacity=".42" stdDeviation="18"/></filter><filter id="cyanGlow" width="172" height="172" x="42" y="42" color-interpolation-filters="sRGB" filterUnits="userSpaceOnUse"><feDropShadow dx="0" dy="0" flood-color="#00CCF9" flood-opacity=".35" stdDeviation="7"/></filter></defs><rect width="256" height="256" fill="url(#appBg)" rx="58"/><path fill="#06192D" stroke="#16446A" stroke-width="3" d="M45 72C45 57.0883 57.0883 45 72 45H184C198.912 45 211 57.0883 211 72V184C211 198.912 198.912 211 184 211H72C57.0883 211 45 198.912 45 184V72Z"/><path stroke="#00CCF9" stroke-opacity=".35" stroke-width="2" d="M62 68H194"/><path stroke="#4EDEA3" stroke-opacity=".24" stroke-width="2" d="M62 188H194"/><g filter="url(#deepShadow)"><path fill="url(#cardGrad)" d="M68 86C68 73.8497 77.8497 64 90 64H166C178.15 64 188 73.8497 188 86V136C188 148.15 178.15 158 166 158H137.5L108.2 184.5C103.671 188.597 96.5 185.383 96.5 179.274V158H90C77.8497 158 68 148.15 68 136V86Z"/></g><g filter="url(#cyanGlow)"><rect width="80" height="13" x="88" y="84" fill="url(#accentGrad)" rx="6.5"/><rect width="58" height="11" x="88" y="109" fill="#0A2540" fill-opacity=".84" rx="5.5"/><rect width="42" height="11" x="88" y="132" fill="#0A2540" fill-opacity=".58" rx="5.5"/></g><circle cx="170" cy="157" r="31" fill="url(#accentGrad)" filter="url(#cyanGlow)"/><path stroke="#000F22" stroke-linecap="round" stroke-linejoin="round" stroke-width="9" d="M155 156L166 167L187 140"/><path stroke="#00CCF9" stroke-linecap="round" stroke-width="6" d="M58 118H39" opacity=".86"/><path stroke="#4EDEA3" stroke-linecap="round" stroke-width="6" d="M58 142H30" opacity=".78"/><path stroke="#00CCF9" stroke-linecap="round" stroke-width="6" d="M198 99H217" opacity=".86"/><path stroke="#4EDEA3" stroke-linecap="round" stroke-width="6" d="M198 123H226" opacity=".78"/><circle cx="73" cy="199" r="5" fill="#00CCF9"/><circle cx="198" cy="61" r="5" fill="#4EDEA3"/></svg>